<?xml version="1.0" encoding="utf-8"?>
<!-- Generator: Adobe Illustrator 16.0.0, SVG Export Plug-In . SVG Version: 6.00 Build 0)  -->
<!DOCTYPE svg PUBLIC "-//W3C//DTD SVG 1.1//EN" "http://www.w3.org/Graphics/SVG/1.1/DTD/svg11.dtd">
<svg version="1.1" id="Layer_1" xmlns="http://www.w3.org/2000/svg" xmlns:xlink="http://www.w3.org/1999/xlink" x="0px" y="0px"
	 width="3291px" height="650px" viewBox="0 0 3291 650" enable-background="new 0 0 3291 650" xml:space="preserve">
<path fill="#D5D5D5" d="M159.03,333.56c-24.26,58.14-49.14,136.33-52.43,217.86c-58.6-57.029-95-136.76-95-224.99
	c0-20.17,1.9-39.891,5.54-59c70.42-39.57,150.48-58.271,213.85-67.03c-15.76,21.28-38.3,58.72-59.87,105.6l-0.1-0.369l-7.97,18.449
	c-0.32,0.75-0.65,1.511-0.97,2.271c-0.17,0.38-0.33,0.76-0.49,1.14c-0.72,1.681-1.43,3.38-2.15,5.09
	C159.3,332.91,159.16,333.23,159.03,333.56z"/>
<path fill="#CCCCCC" d="M410.41,628.76c-26.99,7.57-55.46,11.609-84.87,11.609c-78.47,0-150.21-28.789-205.24-76.369
	c1.11-80.45,24.92-158.32,46.99-213.63c0.61-1.52,1.22-3.029,1.83-4.54c10.52,24.24,31.59,62.33,61.28,104.33l-0.39-0.109
	l12.25,16.46c0.47,0.64,0.95,1.279,1.43,1.92c0.27,0.359,0.54,0.72,0.81,1.069c1.08,1.44,2.18,2.9,3.29,4.351
	c0.23,0.3,0.46,0.609,0.69,0.91C286.61,524.709,341.71,585.17,410.41,628.76z"/>
<path fill="#888888" d="M240.72,24.09C267.7,16.54,296.15,12.5,325.54,12.5c78.9,0,151.01,29.11,206.16,77.181
	c-1.171,80.35-24.95,158.109-46.99,213.35c-0.61,1.521-1.22,3.03-1.83,4.54c-10.54-24.26-31.64-62.42-61.38-104.479l0.38,0.109
	l-12.14-16.31c-0.44-0.601-0.9-1.2-1.35-1.8c-0.3-0.41-0.61-0.82-0.91-1.23c-1.06-1.41-2.13-2.82-3.22-4.25
	c-0.26-0.34-0.52-0.68-0.78-1.02C365.19,128.44,309.8,67.709,240.72,24.09z"/>
<path fill="#BBBBBB" d="M419.24,467.37c61.7-8.26,139.779-25.77,210.39-62.66c-26.229,102.23-102.67,184.339-201.47,218.5
	C359.42,582.1,304.16,522.9,267.38,476.28c-0.9-1.14-1.8-2.29-2.68-3.42c-0.19-0.24-0.38-0.49-0.57-0.729
	c13.68,1.55,31.4,2.42,50.81,2.42c16.32,0,40.69-0.641,70.2-3.341l-0.3,0.29l20.37-2.369c0.32-0.04,0.65-0.08,0.98-0.12
	c0.07-0.011,0.13-0.011,0.2-0.021c1.98-0.24,3.97-0.479,5.99-0.729c0.04-0.011,0.09-0.011,0.13-0.021c1.92-0.24,3.86-0.49,5.81-0.75
	C418.62,467.45,418.93,467.41,419.24,467.37z"/>
<path fill="#AAAAAA" d="M639.47,326.43c0,20.59-1.979,40.71-5.77,60.189C563.56,425.75,484.03,444.28,421.01,453
	c15.75-21.26,38.26-58.649,59.82-105.47l0.1,0.37l8.02-18.58c0.32-0.729,0.63-1.47,0.95-2.21c0.17-0.41,0.35-0.82,0.52-1.229
	c0.71-1.65,1.42-3.33,2.12-5.021c0.15-0.35,0.3-0.7,0.45-1.06c24.22-58.051,49.04-136.08,52.399-217.46
	C603.45,159.31,639.47,238.66,639.47,326.43z"/>
<path fill="#69A3DD" d="M396.926,449.157l-0.037,0.037c-67.408,7.856-122.683,4.909-141.481,0.162l-0.045-0.018
	c-40.508-54.442-65.6-103.795-70.881-122.448l-0.009-0.045c26.891-62.301,57.083-108.705,70.601-122.603l0.037-0.036
	c67.409-7.857,122.683-4.91,141.481-0.162l0.054,0.018c40.5,54.442,65.592,103.785,70.873,122.448l0.009,0.045
	C440.636,388.855,410.443,435.259,396.926,449.157z"/>
<path fill="#666666" d="M381.531,183.34c-0.599-0.8-1.205-1.606-1.811-2.413c-0.87-1.152-1.752-2.312-2.649-3.491
	c-0.006-0.007-0.014-0.008-0.013-0.015c-24.332-31.736-60.379-71.251-106.001-100.03c-71.441,18.461-128.784,69.614-151.044,136.115
	c49.875-20.913,104.141-29.45,147.624-32.623c0.064-0.003,0.128-0.013,0.193-0.016c1.368-0.099,2.728-0.191,4.082-0.284
	c0.313-0.015,0.619-0.036,0.932-0.058c1.303-0.083,2.599-0.166,3.88-0.236c0.171-0.01,0.334-0.021,0.506-0.03
	c1.245-0.073,2.483-0.14,3.707-0.207c0.178-0.003,0.349-0.013,0.52-0.022c0.192-0.008,0.384-0.023,0.569-0.033l14.343-0.717
	l-0.216,0.179c21.03-0.573,38.333,0.01,49.899,0.682c13.722,0.796,26.216,2.096,35.83,3.676
	C381.76,183.658,381.649,183.5,381.531,183.34z"/>
<g>
	<path fill="#404040" d="M1058.007,229.121c0,10.372-1.298,20.733-3.887,31.095c-2.598,10.372-6.877,19.837-12.856,28.405
		c-5.98,8.578-13.754,16.146-23.321,22.724c-9.568,6.578-21.136,11.464-34.684,14.651v3.588c11.96,2,23.321,5.382,34.085,10.166
		c10.764,4.784,20.126,11.362,28.105,19.734c7.971,8.372,14.249,18.538,18.837,30.498c4.578,11.959,6.877,26.115,6.877,42.457
		c0,21.528-4.588,40.168-13.754,55.912c-9.175,15.753-21.435,28.61-36.776,38.571c-15.352,9.97-32.796,17.342-52.324,22.125
		c-19.537,4.784-39.673,7.176-60.396,7.176c-6.784,0-15.455,0-26.013,0c-10.567,0-21.93-0.299-34.086-0.896
		c-12.165-0.598-24.518-1.495-37.075-2.691c-12.558-1.195-24.022-2.989-34.384-5.382V134.638c7.567-1.196,16.238-2.392,26.012-3.588
		c9.765-1.196,20.229-2.187,31.395-2.99c11.156-0.794,22.621-1.393,34.385-1.794c11.754-0.392,23.415-0.598,34.982-0.598
		c19.528,0,38.57,1.495,57.108,4.485c18.537,2.99,35.075,8.278,49.633,15.847c14.548,7.578,26.209,18.145,34.982,31.693
		C1053.616,191.251,1058.007,208.396,1058.007,229.121z M881.601,307.457c5.578,0,12.053-0.196,19.435-0.588
		c7.372-0.393,13.454-0.99,18.238-1.775c15.146-4.728,28.199-11.829,39.169-21.303c10.96-9.465,16.444-21.892,16.444-37.281
		c0-10.259-2-18.734-5.979-25.442c-3.99-6.708-9.27-12.035-15.848-15.978c-6.577-3.943-14.053-6.699-22.424-8.278
		c-8.372-1.579-17.146-2.374-26.312-2.374c-10.372,0-19.939,0.206-28.704,0.598c-8.773,0.393-15.548,0.981-20.331,1.766v110.656
		H881.601z M908.51,487.452c9.96,0,19.631-1.177,29.003-3.55c9.362-2.364,17.641-6.018,24.816-10.951
		c7.176-4.934,12.95-11.147,17.342-18.65c4.382-7.494,6.577-16.379,6.577-26.639c0-13.025-2.597-23.284-7.773-30.778
		c-5.186-7.494-11.96-13.314-20.332-17.463c-8.371-4.149-17.743-6.812-28.105-7.999c-10.371-1.177-20.733-1.775-31.095-1.775
		h-43.653v114.253c1.99,0.794,5.176,1.383,9.567,1.775c4.382,0.393,9.063,0.691,14.053,0.888c4.98,0.206,10.166,0.402,15.548,0.598
		S904.521,487.452,908.51,487.452z"/>
	<path fill="#404040" d="M1085.877,388.886c0-54.639,13.332-96.702,40.016-126.18c26.675-29.467,64.108-44.211,112.304-44.211
		c25.816,0,48.185,4.095,67.123,12.263c18.93,8.179,34.631,19.686,47.116,34.53c12.475,14.845,21.833,32.816,28.075,53.893
		c6.232,21.087,9.359,44.322,9.359,69.706c0,54.649-13.231,96.712-39.693,126.179c-26.463,29.478-63.796,44.212-111.98,44.212
		c-25.817,0-48.195-4.095-67.124-12.264c-18.938-8.168-34.752-19.685-47.438-34.529c-12.696-14.845-22.166-32.806-28.398-53.893
		C1088.993,437.515,1085.877,414.279,1085.877,388.886z M1172.363,388.886c0,14.199,1.291,27.33,3.872,39.371
		c2.582,12.051,6.455,22.59,11.618,31.625c5.163,9.036,11.94,16.035,20.33,20.976c8.391,4.952,18.395,7.422,30.013,7.422
		c21.944,0,38.291-7.957,49.052-23.88c10.75-15.914,16.136-41.085,16.136-75.514c0-29.689-4.952-53.671-14.845-71.964
		c-9.903-18.284-26.685-27.43-50.343-27.43c-20.653,0-36.789,7.745-48.406,23.235
		C1178.172,328.217,1172.363,353.61,1172.363,388.886z"/>
	<path fill="#404040" d="M1644.164,227.531l58.733,165.228l11.617,53.57h2.582l9.036-54.215l41.307-164.582h76.805l-99.395,325.938
		h-61.96l-65.188-180.718l-8.391-40.661h-3.227l-7.745,41.307l-61.961,180.073h-63.896L1368.57,227.531h91.004l47.115,162
		l7.745,57.442h3.228l10.972-58.088l53.57-161.355H1644.164z"/>
	<path fill="#404040" d="M2096.608,522.488c-12.908,10.326-30.445,19.04-52.602,26.14c-22.166,7.1-45.725,10.649-70.674,10.649
		c-52.067,0-90.146-15.168-114.239-45.502c-24.103-30.335-36.144-71.965-36.144-124.889c0-56.797,13.554-99.395,40.661-127.793
		c27.108-28.399,65.188-42.598,114.239-42.598c16.348,0,32.271,2.158,47.762,6.455c15.49,4.306,29.256,11.406,41.307,21.299
		c12.041,9.903,21.723,23.235,29.044,40.016c7.312,16.781,10.972,37.656,10.972,62.605c0,9.036-0.544,18.717-1.613,29.044
		c-1.079,10.327-2.692,21.087-4.841,32.271h-193.626c1.291,27.107,8.28,47.549,20.977,61.315
		c12.687,13.776,33.239,20.653,61.638,20.653c17.638,0,33.451-2.683,47.438-8.068c13.978-5.375,24.627-10.861,31.948-16.458
		L2096.608,522.488z M1976.561,285.619c-21.944,0-38.191,6.565-48.729,19.685c-10.549,13.13-16.892,30.658-19.04,52.602h120.048
		c1.715-23.235-1.835-41.085-10.649-53.57C2009.365,291.861,1995.489,285.619,1976.561,285.619z"/>
	<path fill="#404040" d="M2312.82,306.272c-13.342-4.729-25.394-7.1-36.144-7.1c-15.066,0-27.652,3.983-37.757,11.94
		c-10.115,7.967-16.892,18.183-20.331,30.657v208.471h-83.904v-322.71h65.188l9.681,42.598h2.582
		c7.312-15.914,17.204-28.177,29.689-36.789c12.475-8.602,27.107-12.908,43.889-12.908c11.184,0,23.88,2.37,38.08,7.1
		L2312.82,306.272z"/>
	<path fill="#404040" d="M2610.344,229.121c0,10.372-1.298,20.733-3.887,31.095c-2.598,10.372-6.877,19.837-12.856,28.405
		c-5.98,8.578-13.754,16.146-23.321,22.724c-9.568,6.578-21.136,11.464-34.684,14.651v3.588c11.96,2,23.321,5.382,34.085,10.166
		c10.764,4.784,20.126,11.362,28.105,19.734c7.971,8.372,14.249,18.538,18.837,30.498c4.578,11.959,6.877,26.115,6.877,42.457
		c0,21.528-4.588,40.168-13.754,55.912c-9.175,15.753-21.435,28.61-36.776,38.571c-15.352,9.97-32.796,17.342-52.324,22.125
		c-19.537,4.784-39.673,7.176-60.396,7.176c-6.784,0-15.455,0-26.013,0c-10.567,0-21.93-0.299-34.086-0.896
		c-12.165-0.598-24.518-1.495-37.075-2.691c-12.558-1.195-24.022-2.989-34.384-5.382V134.638c7.567-1.196,16.238-2.392,26.012-3.588
		c9.765-1.196,20.229-2.187,31.395-2.99c11.156-0.794,22.621-1.393,34.385-1.794c11.754-0.392,23.415-0.598,34.982-0.598
		c19.528,0,38.57,1.495,57.108,4.485c18.537,2.99,35.075,8.278,49.633,15.847c14.548,7.578,26.209,18.145,34.982,31.693
		C2605.953,191.251,2610.344,208.396,2610.344,229.121z M2433.938,307.457c5.578,0,12.053-0.196,19.435-0.588
		c7.372-0.393,13.454-0.99,18.238-1.775c15.146-4.728,28.199-11.829,39.169-21.303c10.96-9.465,16.444-21.892,16.444-37.281
		c0-10.259-2-18.734-5.979-25.442c-3.99-6.708-9.27-12.035-15.848-15.978c-6.577-3.943-14.053-6.699-22.424-8.278
		c-8.372-1.579-17.146-2.374-26.312-2.374c-10.372,0-19.939,0.206-28.704,0.598c-8.773,0.393-15.548,0.981-20.331,1.766v110.656
		H2433.938z M2460.847,487.452c9.96,0,19.631-1.177,29.003-3.55c9.362-2.364,17.641-6.018,24.816-10.951
		c7.176-4.934,12.95-11.147,17.342-18.65c4.382-7.494,6.577-16.379,6.577-26.639c0-13.025-2.597-23.284-7.773-30.778
		c-5.186-7.494-11.96-13.314-20.332-17.463c-8.371-4.149-17.743-6.812-28.105-7.999c-10.371-1.177-20.733-1.775-31.095-1.775
		h-43.653v114.253c1.99,0.794,5.176,1.383,9.567,1.775c4.382,0.393,9.063,0.691,14.053,0.888c4.98,0.206,10.166,0.402,15.548,0.598
		S2456.857,487.452,2460.847,487.452z"/>
	<path fill="#404040" d="M2648.541,136.527c0-12.475,4.618-23.124,13.876-31.948c9.248-8.814,22.045-13.231,38.402-13.231
		c16.348,0,29.579,4.417,39.693,13.231c10.105,8.824,15.168,19.474,15.168,31.948c0,12.485-5.063,22.913-15.168,31.303
		c-10.114,8.39-23.346,12.585-39.693,12.585c-16.357,0-29.154-4.195-38.402-12.585
		C2653.159,159.439,2648.541,149.012,2648.541,136.527z M2660.804,227.531h83.904v322.71h-83.904V227.531z"/>
	<path fill="#404040" d="M2973.83,306.272c-13.342-4.729-25.394-7.1-36.144-7.1c-15.066,0-27.652,3.983-37.757,11.94
		c-10.115,7.967-16.892,18.183-20.331,30.657v208.471h-83.904v-322.71h65.188l9.681,42.598h2.582
		c7.312-15.914,17.204-28.177,29.689-36.789c12.475-8.602,27.107-12.908,43.889-12.908c11.184,0,23.88,2.37,38.08,7.1
		L2973.83,306.272z"/>
	<path fill="#404040" d="M3264.914,436.647c0,18.072,0.212,36.144,0.646,54.215c0.423,18.072,2.359,38.08,5.809,60.024h-60.024
		l-11.617-41.952h-2.582c-8.612,15.066-20.976,27.219-37.111,36.466c-16.136,9.248-35.176,13.877-57.12,13.877
		c-40.449,0-71.863-13.332-94.231-40.017c-22.378-26.674-33.562-68.414-33.562-125.211c0-55.073,12.475-97.882,37.435-128.439
		c24.949-30.546,61.526-45.825,109.722-45.825c13.331,0,24.304,0.756,32.916,2.259c8.603,1.513,17.204,3.984,25.816,7.422V98.447
		h83.905V436.647z M3122.276,488.281c16.347,0,29.255-3.973,38.725-11.94c9.46-7.957,16.136-19.464,20.008-34.53V304.981
		c-6.03-4.729-12.696-8.279-20.008-10.649c-7.321-2.36-16.781-3.55-28.398-3.55c-23.669,0-41.418,7.967-53.247,23.881
		c-11.84,15.923-17.749,43.243-17.749,81.968c0,27.541,4.841,49.697,14.521,66.478
		C3085.81,479.891,3101.188,488.281,3122.276,488.281z"/>
</g>
</svg>
