<?xml version="1.0" encoding="utf-8"?>
<!-- Generator: Adobe Illustrator 16.0.0, SVG Export Plug-In . SVG Version: 6.00 Build 0)  -->
<!DOCTYPE svg PUBLIC "-//W3C//DTD SVG 1.1//EN" "http://www.w3.org/Graphics/SVG/1.1/DTD/svg11.dtd">
<svg version="1.1" id="Layer_1" xmlns="http://www.w3.org/2000/svg" xmlns:xlink="http://www.w3.org/1999/xlink" x="0px" y="0px"
	 width="655px" height="650px" viewBox="0 0 655 650" enable-background="new 0 0 655 650" xml:space="preserve">
<path fill="#D5D5D5" d="M159.03,333.56c-24.26,58.14-49.14,136.33-52.43,217.86c-58.6-57.029-95-136.76-95-224.99
	c0-20.17,1.9-39.891,5.54-59c70.42-39.57,150.48-58.271,213.85-67.03c-15.76,21.28-38.3,58.72-59.87,105.6l-0.1-0.369l-7.97,18.449
	c-0.32,0.75-0.65,1.511-0.97,2.271c-0.17,0.38-0.33,0.76-0.49,1.14c-0.72,1.681-1.43,3.38-2.15,5.09
	C159.3,332.91,159.16,333.23,159.03,333.56z"/>
<path fill="#CCCCCC" d="M410.41,628.76c-26.99,7.57-55.46,11.609-84.87,11.609c-78.47,0-150.21-28.789-205.24-76.369
	c1.11-80.45,24.92-158.32,46.99-213.63c0.61-1.52,1.22-3.029,1.83-4.54c10.52,24.24,31.59,62.33,61.28,104.33l-0.39-0.109
	l12.25,16.46c0.47,0.64,0.95,1.279,1.43,1.92c0.27,0.359,0.54,0.72,0.81,1.069c1.08,1.44,2.18,2.9,3.29,4.351
	c0.23,0.3,0.46,0.609,0.69,0.91C286.61,524.709,341.71,585.17,410.41,628.76z"/>
<path fill="#888888" d="M240.72,24.09C267.7,16.54,296.15,12.5,325.54,12.5c78.9,0,151.01,29.11,206.16,77.181
	c-1.171,80.35-24.95,158.109-46.99,213.35c-0.61,1.521-1.22,3.03-1.83,4.54c-10.54-24.26-31.64-62.42-61.38-104.479l0.38,0.109
	l-12.14-16.31c-0.44-0.601-0.9-1.2-1.35-1.8c-0.3-0.41-0.61-0.82-0.91-1.23c-1.06-1.41-2.13-2.82-3.22-4.25
	c-0.26-0.34-0.52-0.68-0.78-1.02C365.19,128.44,309.8,67.709,240.72,24.09z"/>
<path fill="#BBBBBB" d="M419.24,467.37c61.7-8.26,139.779-25.77,210.39-62.66c-26.229,102.23-102.67,184.339-201.47,218.5
	C359.42,582.1,304.16,522.9,267.38,476.28c-0.9-1.14-1.8-2.29-2.68-3.42c-0.19-0.24-0.38-0.49-0.57-0.729
	c13.68,1.55,31.4,2.42,50.81,2.42c16.32,0,40.69-0.641,70.2-3.341l-0.3,0.29l20.37-2.369c0.32-0.04,0.65-0.08,0.98-0.12
	c0.07-0.011,0.13-0.011,0.2-0.021c1.98-0.24,3.97-0.479,5.99-0.729c0.04-0.011,0.09-0.011,0.13-0.021c1.92-0.24,3.86-0.49,5.81-0.75
	C418.62,467.45,418.93,467.41,419.24,467.37z"/>
<path fill="#AAAAAA" d="M639.47,326.43c0,20.59-1.979,40.71-5.77,60.189C563.56,425.75,484.03,444.28,421.01,453
	c15.75-21.26,38.26-58.649,59.82-105.47l0.1,0.37l8.02-18.58c0.32-0.729,0.63-1.47,0.95-2.21c0.17-0.41,0.35-0.82,0.52-1.229
	c0.71-1.65,1.42-3.33,2.12-5.021c0.15-0.35,0.3-0.7,0.45-1.06c24.22-58.051,49.04-136.08,52.399-217.46
	C603.45,159.31,639.47,238.66,639.47,326.43z"/>
<path fill="#69A3DD" d="M396.926,449.157l-0.037,0.037c-67.408,7.856-122.683,4.909-141.481,0.162l-0.045-0.018
	c-40.508-54.442-65.6-103.795-70.881-122.448l-0.009-0.045c26.891-62.301,57.083-108.705,70.601-122.603l0.037-0.036
	c67.409-7.857,122.683-4.91,141.481-0.162l0.054,0.018c40.5,54.442,65.592,103.785,70.873,122.448l0.009,0.045
	C440.636,388.855,410.443,435.259,396.926,449.157z"/>
<path fill="#666666" d="M381.531,183.34c-0.599-0.8-1.205-1.606-1.811-2.413c-0.87-1.152-1.752-2.312-2.649-3.491
	c-0.006-0.007-0.014-0.008-0.013-0.015c-24.332-31.736-60.379-71.251-106.001-100.03c-71.441,18.461-128.784,69.614-151.044,136.115
	c49.875-20.913,104.141-29.45,147.624-32.623c0.064-0.003,0.128-0.013,0.193-0.016c1.368-0.099,2.728-0.191,4.082-0.284
	c0.313-0.015,0.619-0.036,0.932-0.058c1.303-0.083,2.599-0.166,3.88-0.236c0.171-0.01,0.334-0.021,0.506-0.03
	c1.245-0.073,2.483-0.14,3.707-0.207c0.178-0.003,0.349-0.013,0.52-0.022c0.192-0.008,0.384-0.023,0.569-0.033l14.343-0.717
	l-0.216,0.179c21.03-0.573,38.333,0.01,49.899,0.682c13.722,0.796,26.216,2.096,35.83,3.676
	C381.76,183.658,381.649,183.5,381.531,183.34z M252.139,154.417c-10.048,0-18.193-8.145-18.193-18.192s8.145-18.193,18.193-18.193
	c10.047,0,18.193,8.146,18.193,18.193S262.187,154.417,252.139,154.417z"/>
<g>
	<path fill="#404040" d="M1059.613,209.482c0,10.983-1.375,21.956-4.115,32.929c-2.751,10.983-7.282,21.006-13.615,30.079
		c-6.333,9.083-14.564,17.097-24.697,24.063c-10.131,6.965-22.381,12.14-36.728,15.514v3.8c12.664,2.117,24.696,5.699,36.095,10.765
		c11.399,5.066,21.313,12.032,29.764,20.897c8.438,8.866,15.088,19.631,19.946,32.296c4.849,12.665,7.282,27.655,7.282,44.961
		c0,22.796-4.857,42.536-14.564,59.208c-9.716,16.683-22.698,30.298-38.945,40.844c-16.256,10.558-34.729,18.364-55.408,23.431
		c-20.689,5.066-42.013,7.6-63.958,7.6c-7.184,0-16.365,0-27.546,0c-11.19,0-23.223-0.317-36.095-0.95
		c-12.884-0.633-25.964-1.583-39.262-2.85c-13.299-1.267-25.438-3.167-36.412-5.699v-436.94c8.016-1.266,17.196-2.533,27.547-3.799
		c10.34-1.267,21.421-2.315,33.245-3.166c11.814-0.841,23.954-1.475,36.412-1.9c12.447-0.416,24.795-0.634,37.044-0.634
		c20.68,0,40.845,1.583,60.476,4.75c19.63,3.167,37.144,8.767,52.56,16.781c15.405,8.024,27.753,19.215,37.045,33.562
		C1054.963,169.38,1059.613,187.536,1059.613,209.482z M872.807,292.437c5.906,0,12.764-0.208,20.58-0.623
		c7.807-0.416,14.248-1.049,19.313-1.88c16.04-5.007,29.862-12.526,41.478-22.56c11.606-10.023,17.414-23.183,17.414-39.479
		c0-10.864-2.117-19.838-6.331-26.943c-4.226-7.104-9.816-12.744-16.782-16.92c-6.965-4.175-14.881-7.094-23.746-8.766
		c-8.866-1.672-18.156-2.513-27.863-2.513c-10.982,0-21.114,0.218-30.396,0.633c-9.29,0.416-16.465,1.039-21.53,1.87v117.18H872.807
		z M901.302,483.044c10.548,0,20.789-1.246,30.713-3.76c9.914-2.502,18.681-6.372,26.279-11.596
		c7.599-5.224,13.715-11.804,18.364-19.75c4.641-7.935,6.967-17.345,6.967-28.209c0-13.793-2.751-24.657-8.233-32.592
		c-5.491-7.936-12.665-14.099-21.53-18.493c-8.865-4.393-18.789-7.213-29.762-8.47c-10.983-1.247-21.957-1.88-32.93-1.88h-46.227
		v120.989c2.107,0.841,5.481,1.465,10.132,1.88c4.641,0.416,9.598,0.732,14.882,0.94c5.273,0.219,10.765,0.425,16.464,0.634
		C892.12,482.945,897.077,483.044,901.302,483.044z"/>
	<path fill="#404040" d="M1087.469,391.224c0-53.608,13.08-94.878,39.261-123.799c26.171-28.912,62.899-43.377,110.185-43.377
		c25.331,0,47.276,4.017,65.858,12.032c18.572,8.024,33.978,19.314,46.228,33.878c12.238,14.565,21.421,32.197,27.546,52.876
		c6.114,20.689,9.183,43.486,9.183,68.391c0,53.618-12.982,94.888-38.945,123.8c-25.964,28.921-62.593,43.377-109.869,43.377
		c-25.329,0-47.285-4.017-65.857-12.031c-18.581-8.015-34.096-19.313-46.543-33.879c-12.457-14.565-21.748-32.187-27.863-52.876
		C1090.526,438.935,1087.469,416.138,1087.469,391.224z M1172.324,391.224c0,13.932,1.267,26.814,3.799,38.628
		c2.533,11.824,6.333,22.164,11.398,31.029c5.066,8.865,11.715,15.731,19.947,20.581c8.232,4.858,18.048,7.281,29.445,7.281
		c21.531,0,37.57-7.806,48.127-23.429c10.548-15.614,15.832-40.311,15.832-74.09c0-29.129-4.858-52.658-14.564-70.607
		c-9.717-17.938-26.182-26.913-49.395-26.913c-20.264,0-36.094,7.599-47.493,22.796
		C1178.022,331.699,1172.324,356.613,1172.324,391.224z"/>
	<path fill="#404040" d="M1635.227,232.912l57.626,162.111l11.397,52.559h2.533l8.865-53.192l40.528-161.478h75.356l-97.521,319.789
		h-60.792l-63.957-177.309l-8.232-39.895h-3.166l-7.6,40.527l-60.791,176.676h-62.691l-101.952-319.789h89.287l46.227,158.945
		l7.6,56.359h3.166l10.765-56.992l52.56-158.312H1635.227z"/>
	<path fill="#404040" d="M2079.136,522.306c-12.665,10.132-29.871,18.681-51.61,25.646c-21.747,6.966-44.861,10.448-69.34,10.448
		c-51.085,0-88.446-14.881-112.085-44.644c-23.647-29.763-35.461-70.607-35.461-122.533c0-55.726,13.298-97.52,39.894-125.383
		c26.598-27.863,63.958-41.794,112.085-41.794c16.04,0,31.663,2.117,46.86,6.333c15.197,4.225,28.703,11.19,40.528,20.897
		c11.813,9.716,21.313,22.797,28.495,39.261c7.174,16.465,10.766,36.946,10.766,61.425c0,8.865-0.534,18.364-1.583,28.496
		c-1.059,10.132-2.642,20.689-4.749,31.662h-189.975c1.267,26.596,8.123,46.653,20.58,60.159
		c12.447,13.516,32.613,20.264,60.476,20.264c17.306,0,32.82-2.632,46.544-7.915c13.713-5.274,24.162-10.657,31.346-16.148
		L2079.136,522.306z M1961.352,289.904c-21.53,0-37.471,6.441-47.811,19.314c-10.35,12.883-16.572,30.079-18.68,51.61h117.783
		c1.683-22.797-1.801-40.31-10.448-52.56C1993.539,296.029,1979.924,289.904,1961.352,289.904z"/>
	<path fill="#404040" d="M2291.27,310.168c-13.09-4.641-24.914-6.965-35.462-6.965c-14.782,0-27.13,3.908-37.045,11.715
		c-9.925,7.816-16.573,17.84-19.947,30.079v204.539h-82.322V232.912h63.958l9.498,41.794h2.533
		c7.175-15.614,16.881-27.646,29.13-36.095c12.239-8.44,26.597-12.665,43.061-12.665c10.973,0,23.431,2.325,37.362,6.965
		L2291.27,310.168z"/>
	<path fill="#404040" d="M2607.891,209.482c0,10.983-1.375,21.956-4.115,32.929c-2.751,10.983-7.282,21.006-13.615,30.079
		c-6.332,9.083-14.564,17.097-24.696,24.063c-10.132,6.965-22.382,12.14-36.729,15.514v3.8c12.665,2.117,24.697,5.699,36.096,10.765
		c11.398,5.066,21.313,12.032,29.763,20.897c8.439,8.866,15.088,19.631,19.946,32.296c4.849,12.665,7.283,27.655,7.283,44.961
		c0,22.796-4.858,42.536-14.565,59.208c-9.716,16.683-22.697,30.298-38.944,40.844c-16.257,10.558-34.729,18.364-55.409,23.431
		c-20.689,5.066-42.012,7.6-63.957,7.6c-7.184,0-16.365,0-27.547,0c-11.19,0-23.223-0.317-36.095-0.95
		c-12.884-0.633-25.963-1.583-39.262-2.85c-13.298-1.267-25.438-3.167-36.412-5.699v-436.94c8.016-1.266,17.197-2.533,27.547-3.799
		c10.34-1.267,21.421-2.315,33.245-3.166c11.814-0.841,23.955-1.475,36.412-1.9c12.447-0.416,24.796-0.634,37.045-0.634
		c20.68,0,40.845,1.583,60.475,4.75c19.631,3.167,37.144,8.767,52.561,16.781c15.404,8.024,27.753,19.215,37.044,33.562
		C2603.24,169.38,2607.891,187.536,2607.891,209.482z M2421.084,292.437c5.907,0,12.764-0.208,20.58-0.623
		c7.807-0.416,14.248-1.049,19.314-1.88c16.039-5.007,29.861-12.526,41.478-22.56c11.606-10.023,17.414-23.183,17.414-39.479
		c0-10.864-2.117-19.838-6.332-26.943c-4.226-7.104-9.816-12.744-16.781-16.92c-6.966-4.175-14.882-7.094-23.747-8.766
		c-8.865-1.672-18.156-2.513-27.862-2.513c-10.983,0-21.115,0.218-30.396,0.633c-9.29,0.416-16.464,1.039-21.53,1.87v117.18
		H2421.084z M2449.58,483.044c10.547,0,20.788-1.246,30.712-3.76c9.914-2.502,18.682-6.372,26.28-11.596
		c7.599-5.224,13.714-11.804,18.363-19.75c4.641-7.935,6.967-17.345,6.967-28.209c0-13.793-2.751-24.657-8.232-32.592
		c-5.492-7.936-12.665-14.099-21.53-18.493c-8.865-4.393-18.79-7.213-29.763-8.47c-10.982-1.247-21.956-1.88-32.929-1.88h-46.228
		v120.989c2.107,0.841,5.482,1.465,10.132,1.88c4.641,0.416,9.598,0.732,14.882,0.94c5.273,0.219,10.765,0.425,16.465,0.634
		C2440.398,482.945,2445.355,483.044,2449.58,483.044z"/>
	<path fill="#404040" d="M2645.879,143.625c0-12.239,4.531-22.688,13.614-31.346c9.073-8.648,21.63-12.981,37.678-12.981
		c16.04,0,29.021,4.333,38.945,12.981c9.914,8.658,14.881,19.106,14.881,31.346c0,12.249-4.967,22.48-14.881,30.712
		c-9.925,8.232-22.905,12.348-38.945,12.348c-16.048,0-28.604-4.116-37.678-12.348
		C2650.41,166.105,2645.879,155.874,2645.879,143.625z M2657.91,232.912h82.322v316.623h-82.322V232.912z"/>
	<path fill="#404040" d="M2965.032,310.168c-13.09-4.641-24.913-6.965-35.462-6.965c-14.782,0-27.13,3.908-37.045,11.715
		c-9.924,7.816-16.573,17.84-19.946,30.079v204.539h-82.323V232.912h63.959l9.498,41.794h2.533
		c7.174-15.614,16.881-27.646,29.129-36.095c12.24-8.44,26.597-12.665,43.062-12.665c10.973,0,23.43,2.325,37.361,6.965
		L2965.032,310.168z"/>
	<path fill="#404040" d="M3250.625,438.084c0,17.731,0.208,35.461,0.634,53.192c0.415,17.731,2.315,37.361,5.699,58.893h-58.892
		l-11.398-41.161h-2.533c-8.45,14.781-20.581,26.705-36.411,35.778c-15.832,9.072-34.513,13.614-56.042,13.614
		c-39.688,0-70.51-13.08-92.455-39.261c-21.955-26.171-32.928-67.124-32.928-122.85c0-54.033,12.238-96.036,36.728-126.016
		c24.479-29.97,60.366-44.96,107.651-44.96c13.081,0,23.846,0.743,32.296,2.217c8.439,1.484,16.88,3.908,25.33,7.282V106.263h82.321
		V438.084z M3110.678,488.743c16.039,0,28.704-3.898,37.995-11.714c9.28-7.807,15.831-19.097,19.631-33.879V308.901
		c-5.917-4.64-12.458-8.123-19.631-10.448c-7.184-2.315-16.464-3.482-27.862-3.482c-23.223,0-40.637,7.816-52.243,23.43
		c-11.616,15.624-17.414,42.428-17.414,80.422c0,27.022,4.749,48.76,14.247,65.224
		C3074.899,480.512,3089.989,488.743,3110.678,488.743z"/>
</g>
</svg>
