<?xml version="1.0" encoding="utf-8"?>
<!-- Generator: Adobe Illustrator 16.0.0, SVG Export Plug-In . SVG Version: 6.00 Build 0)  -->
<!DOCTYPE svg PUBLIC "-//W3C//DTD SVG 1.1//EN" "http://www.w3.org/Graphics/SVG/1.1/DTD/svg11.dtd">
<svg version="1.1" id="Layer_1" xmlns="http://www.w3.org/2000/svg" xmlns:xlink="http://www.w3.org/1999/xlink" x="0px" y="0px"
	 width="1001px" height="215px" viewBox="0 0 1001 215" enable-background="new 0 0 1001 215" xml:space="preserve">
<path fill="#D5D5D5" d="M50.851,109.727c-7.347,17.607-14.88,41.285-15.878,65.975c-17.746-17.27-28.77-41.416-28.77-68.134
	c0-6.108,0.576-12.081,1.679-17.867c21.325-11.983,45.569-17.646,64.761-20.299c-4.773,6.444-11.6,17.782-18.132,31.979
	l-0.029-0.112l-2.414,5.587c-0.096,0.227-0.196,0.457-0.294,0.688c-0.051,0.115-0.1,0.23-0.148,0.345
	c-0.217,0.509-0.432,1.024-0.65,1.542C50.933,109.53,50.89,109.627,50.851,109.727z"/>
<path fill="#CCCCCC" d="M126.977,199.123c-8.174,2.293-16.795,3.516-25.701,3.516c-23.763,0-45.488-8.718-62.153-23.127
	c0.337-24.362,7.547-47.944,14.229-64.694c0.186-0.46,0.369-0.917,0.555-1.375c3.186,7.34,9.566,18.875,18.558,31.594l-0.118-0.033
	l3.709,4.984c0.143,0.194,0.288,0.387,0.434,0.582c0.082,0.108,0.163,0.218,0.246,0.324c0.326,0.437,0.659,0.878,0.995,1.317
	c0.07,0.091,0.14,0.185,0.21,0.275C89.486,167.613,106.172,185.923,126.977,199.123z"/>
<path fill="#888888" d="M75.59,16.009c8.17-2.287,16.785-3.51,25.686-3.51c23.894,0,45.73,8.815,62.432,23.373
	c-0.355,24.333-7.556,47.881-14.23,64.61c-0.185,0.46-0.369,0.917-0.553,1.375c-3.193-7.347-9.583-18.903-18.589-31.64l0.115,0.033
	l-3.677-4.939c-0.134-0.182-0.272-0.363-0.408-0.545c-0.091-0.124-0.186-0.248-0.275-0.373c-0.321-0.427-0.646-0.854-0.976-1.287
	c-0.079-0.103-0.157-0.206-0.236-0.309C113.282,47.61,96.508,29.219,75.59,16.009z"/>
<path fill="#BBBBBB" d="M129.65,150.249c18.686-2.501,42.329-7.804,63.713-18.976c-7.943,30.958-31.092,55.824-61.012,66.169
	c-20.817-12.449-37.551-30.376-48.689-44.495c-0.272-0.345-0.545-0.693-0.812-1.035c-0.058-0.073-0.114-0.149-0.172-0.221
	c4.143,0.469,9.509,0.732,15.386,0.732c4.943,0,12.324-0.193,21.26-1.011l-0.092,0.087l6.169-0.717
	c0.099-0.012,0.196-0.024,0.298-0.036c0.021-0.003,0.039-0.003,0.061-0.007c0.599-0.073,1.201-0.145,1.813-0.221
	c0.012-0.003,0.027-0.003,0.039-0.006c0.582-0.073,1.169-0.149,1.76-0.227C129.463,150.273,129.557,150.261,129.65,150.249z"/>
<path fill="#AAAAAA" d="M196.343,107.568c0,6.235-0.599,12.328-1.747,18.228c-21.24,11.85-45.325,17.461-64.408,20.102
	c4.77-6.438,11.585-17.761,18.115-31.94l0.03,0.112l2.429-5.626c0.097-0.221,0.19-0.445,0.286-0.669
	c0.052-0.125,0.106-0.249,0.159-0.373c0.214-0.5,0.429-1.008,0.642-1.521c0.045-0.105,0.09-0.212,0.136-0.321
	c7.334-17.579,14.852-41.209,15.868-65.854C185.436,56.958,196.343,80.988,196.343,107.568z"/>
<path fill="#69A3DD" d="M122.894,144.733l-0.012,0.011c-20.413,2.379-37.152,1.487-42.845,0.049l-0.014-0.005
	c-12.268-16.487-19.866-31.432-21.465-37.082l-0.004-0.014c8.145-18.866,17.287-32.919,21.381-37.127l0.011-0.011
	c20.413-2.38,37.152-1.487,42.846-0.049l0.017,0.005c12.265,16.486,19.863,31.429,21.463,37.081l0.002,0.013
	C136.131,126.472,126.986,140.525,122.894,144.733z"/>
<path fill="#666666" d="M118.231,64.236c-0.183-0.243-0.366-0.487-0.549-0.731c-0.263-0.349-0.531-0.7-0.802-1.057
	c-0.002-0.002-0.006-0.002-0.004-0.004c-7.369-9.611-18.285-21.577-32.102-30.292c-21.635,5.59-39,21.082-45.741,41.22
	c15.105-6.333,31.538-8.918,44.706-9.879c0.02-0.001,0.039-0.004,0.059-0.005c0.414-0.03,0.825-0.058,1.236-0.086
	c0.094-0.004,0.187-0.011,0.281-0.018c0.396-0.025,0.787-0.05,1.176-0.071c0.051-0.003,0.102-0.006,0.152-0.009
	c0.377-0.022,0.753-0.042,1.123-0.063c0.053-0.001,0.105-0.004,0.157-0.007c0.059-0.003,0.116-0.008,0.172-0.011l4.343-0.216
	l-0.064,0.054c6.368-0.174,11.608,0.003,15.111,0.207c4.156,0.241,7.939,0.635,10.851,1.113
	C118.3,64.332,118.267,64.284,118.231,64.236z"/>
<g>
	<path fill="#404040" d="M323.09,78.1c0,3.141-0.393,6.278-1.177,9.417c-0.786,3.141-2.083,6.007-3.894,8.602
		c-1.812,2.598-4.165,4.889-7.063,6.881c-2.897,1.992-6.401,3.472-10.504,4.437v1.086c3.623,0.605,7.063,1.63,10.323,3.079
		c3.259,1.449,6.095,3.441,8.511,5.976c2.414,2.536,4.314,5.614,5.705,9.236c1.386,3.622,2.082,7.908,2.082,12.857
		c0,6.52-1.389,12.165-4.165,16.933c-2.778,4.771-6.491,8.664-11.137,11.68c-4.649,3.019-9.932,5.251-15.847,6.7
		c-5.916,1.449-12.014,2.173-18.29,2.173c-2.054,0-4.68,0-7.876,0c-3.201,0-6.642-0.09-10.322-0.271
		c-3.686-0.181-7.426-0.453-11.229-0.814c-3.803-0.362-7.274-0.906-10.412-1.63V49.487c2.291-0.362,4.917-0.724,7.877-1.086
		c2.957-0.362,6.127-0.662,9.508-0.906c3.378-0.24,6.85-0.421,10.412-0.542c3.559-0.119,7.092-0.181,10.594-0.181
		c5.914,0,11.68,0.452,17.294,1.358s10.622,2.507,15.03,4.799c4.406,2.295,7.938,5.495,10.594,9.598
		C321.761,66.631,323.09,71.823,323.09,78.1z M269.668,101.822c1.689,0,3.65-0.06,5.887-0.178c2.231-0.12,4.074-0.3,5.522-0.538
		c4.587-1.432,8.54-3.583,11.861-6.451c3.319-2.867,4.98-6.629,4.98-11.29c0-3.107-0.605-5.673-1.811-7.705
		c-1.209-2.031-2.808-3.644-4.8-4.838c-1.992-1.195-4.256-2.029-6.79-2.507c-2.536-0.479-5.192-0.719-7.969-0.719
		c-3.141,0-6.038,0.063-8.692,0.181c-2.656,0.119-4.709,0.297-6.156,0.535v33.51H269.668z M277.817,156.331
		c3.017,0,5.944-0.356,8.782-1.075c2.835-0.716,5.344-1.823,7.516-3.316c2.174-1.495,3.922-3.376,5.252-5.648
		c1.327-2.27,1.992-4.96,1.992-8.067c0-3.944-0.787-7.051-2.354-9.32c-1.571-2.269-3.623-4.032-6.158-5.289
		c-2.535-1.256-5.373-2.063-8.512-2.422c-3.141-0.356-6.277-0.538-9.416-0.538h-13.219v34.6c0.603,0.24,1.566,0.418,2.896,0.537
		c1.327,0.119,2.744,0.209,4.256,0.269c1.508,0.062,3.078,0.122,4.709,0.181C275.191,156.303,276.609,156.331,277.817,156.331z"/>
	<path fill="#404040" d="M331.53,126.481c0-16.546,4.037-29.285,12.118-38.211c8.078-8.924,19.414-13.389,34.009-13.389
		c7.817,0,14.592,1.24,20.327,3.713c5.732,2.477,10.487,5.961,14.268,10.457c3.778,4.496,6.613,9.938,8.503,16.32
		c1.888,6.386,2.834,13.423,2.834,21.109c0,16.55-4.007,29.288-12.021,38.211c-8.014,8.927-19.319,13.39-33.911,13.39
		c-7.817,0-14.595-1.241-20.327-3.714c-5.735-2.474-10.524-5.961-14.366-10.457c-3.845-4.496-6.712-9.934-8.601-16.32
		C332.474,141.208,331.53,134.172,331.53,126.481z M357.722,126.481c0,4.3,0.39,8.277,1.172,11.923
		c0.782,3.65,1.954,6.841,3.519,9.577c1.563,2.736,3.616,4.856,6.156,6.353c2.541,1.5,5.57,2.248,9.089,2.248
		c6.646,0,11.596-2.41,14.854-7.232c3.256-4.819,4.887-12.442,4.887-22.869c0-8.991-1.5-16.253-4.496-21.793
		c-2.999-5.537-8.081-8.307-15.245-8.307c-6.255,0-11.142,2.346-14.659,7.036C359.48,108.109,357.722,115.799,357.722,126.481z"/>
	<path fill="#404040" d="M500.598,77.618l17.786,50.036l3.518,16.223h0.782l2.736-16.418l12.51-49.84h23.259l-30.1,98.704h-18.765
		l-19.739-54.727l-2.542-12.313h-0.977l-2.346,12.509l-18.764,54.531h-19.351l-31.468-98.704h27.559l14.269,49.059l2.346,17.396
		h0.978l3.322-17.591l16.223-48.863H500.598z"/>
	<path fill="#404040" d="M637.612,166.941c-3.91,3.127-9.22,5.766-15.93,7.916c-6.712,2.15-13.846,3.226-21.402,3.226
		c-15.767,0-27.299-4.594-34.595-13.78c-7.299-9.186-10.945-21.793-10.945-37.821c0-17.2,4.104-30.1,12.313-38.7
		s19.74-12.9,34.595-12.9c4.951,0,9.772,0.653,14.464,1.955c4.691,1.304,8.859,3.454,12.51,6.45
		c3.646,2.999,6.577,7.037,8.796,12.118c2.213,5.082,3.322,11.404,3.322,18.959c0,2.737-0.165,5.668-0.489,8.796
		c-0.327,3.127-0.816,6.386-1.466,9.772h-58.637c0.392,8.209,2.508,14.399,6.352,18.568c3.843,4.172,10.066,6.255,18.667,6.255
		c5.341,0,10.13-0.813,14.365-2.443c4.233-1.627,7.459-3.289,9.676-4.984L637.612,166.941z M601.258,95.209
		c-6.646,0-11.564,1.988-14.758,5.961c-3.192,3.977-5.113,9.284-5.766,15.93h36.355c0.52-7.037-0.556-12.442-3.226-16.223
		C611.192,97.1,606.99,95.209,601.258,95.209z"/>
	<path fill="#404040" d="M703.089,101.463c-4.04-1.432-7.69-2.15-10.946-2.15c-4.563,0-8.373,1.207-11.434,3.616
		c-3.063,2.412-5.115,5.506-6.156,9.284v63.132h-25.41V77.618h19.742l2.931,12.9h0.782c2.214-4.819,5.21-8.533,8.991-11.141
		c3.777-2.605,8.208-3.909,13.29-3.909c3.387,0,7.232,0.717,11.533,2.15L703.089,101.463z"/>
	<path fill="#404040" d="M793.189,78.1c0,3.141-0.395,6.278-1.178,9.417c-0.787,3.141-2.083,6.007-3.894,8.602
		c-1.812,2.598-4.165,4.889-7.063,6.881c-2.897,1.992-6.401,3.472-10.504,4.437v1.086c3.623,0.605,7.063,1.63,10.321,3.079
		c3.261,1.449,6.096,3.441,8.513,5.976c2.413,2.536,4.313,5.614,5.705,9.236c1.385,3.622,2.081,7.908,2.081,12.857
		c0,6.52-1.389,12.165-4.165,16.933c-2.778,4.771-6.491,8.664-11.137,11.68c-4.649,3.019-9.932,5.251-15.846,6.7
		c-5.916,1.449-12.015,2.173-18.29,2.173c-2.054,0-4.68,0-7.877,0c-3.201,0-6.641-0.09-10.322-0.271
		c-3.684-0.181-7.424-0.453-11.228-0.814c-3.804-0.362-7.275-0.906-10.412-1.63V49.487c2.291-0.362,4.917-0.724,7.876-1.086
		c2.957-0.362,6.127-0.662,9.509-0.906c3.378-0.24,6.85-0.421,10.412-0.542c3.56-0.119,7.09-0.181,10.594-0.181
		c5.913,0,11.68,0.452,17.295,1.358c5.612,0.906,10.621,2.507,15.028,4.799c4.406,2.295,7.938,5.495,10.596,9.598
		C791.858,66.631,793.189,71.823,793.189,78.1z M739.767,101.822c1.689,0,3.649-0.06,5.886-0.178c2.232-0.12,4.074-0.3,5.523-0.538
		c4.586-1.432,8.539-3.583,11.861-6.451c3.318-2.867,4.979-6.629,4.979-11.29c0-3.107-0.605-5.673-1.811-7.705
		c-1.209-2.031-2.808-3.644-4.799-4.838c-1.991-1.195-4.256-2.029-6.791-2.507s-5.192-0.719-7.968-0.719
		c-3.141,0-6.039,0.063-8.692,0.181c-2.657,0.119-4.708,0.297-6.157,0.535v33.51H739.767z M747.916,156.331
		c3.017,0,5.944-0.356,8.782-1.075c2.836-0.716,5.343-1.823,7.517-3.316c2.172-1.495,3.92-3.376,5.251-5.648
		c1.327-2.27,1.991-4.96,1.991-8.067c0-3.944-0.786-7.051-2.354-9.32c-1.57-2.269-3.622-4.032-6.157-5.289
		c-2.535-1.256-5.374-2.063-8.512-2.422c-3.14-0.356-6.278-0.538-9.416-0.538h-13.22v34.6c0.603,0.24,1.567,0.418,2.897,0.537
		c1.326,0.119,2.745,0.209,4.255,0.269c1.509,0.062,3.079,0.122,4.709,0.181C745.29,156.303,746.708,156.331,747.916,156.331z"/>
	<path fill="#404040" d="M804.756,50.059c0-3.778,1.398-7.003,4.202-9.675c2.8-2.669,6.675-4.007,11.629-4.007
		c4.951,0,8.958,1.337,12.021,4.007c3.061,2.672,4.593,5.897,4.593,9.675c0,3.781-1.532,6.938-4.593,9.479
		c-3.063,2.541-7.069,3.812-12.021,3.812c-4.954,0-8.829-1.271-11.629-3.812C806.154,56.998,804.756,53.84,804.756,50.059z
		 M808.47,77.618h25.409v97.727H808.47V77.618z"/>
	<path fill="#404040" d="M903.264,101.463c-4.04-1.432-7.689-2.15-10.945-2.15c-4.563,0-8.374,1.207-11.434,3.616
		c-3.063,2.412-5.115,5.506-6.157,9.284v63.132h-25.409V77.618h19.74l2.933,12.9h0.782c2.213-4.819,5.209-8.533,8.99-11.141
		c3.777-2.605,8.209-3.909,13.291-3.909c3.388,0,7.231,0.717,11.532,2.15L903.264,101.463z"/>
	<path fill="#404040" d="M991.414,140.945c0,5.473,0.063,10.945,0.194,16.418c0.129,5.473,0.715,11.532,1.76,18.177H975.19
		l-3.519-12.704h-0.782c-2.607,4.563-6.351,8.242-11.237,11.043s-10.652,4.203-17.298,4.203c-12.25,0-21.763-4.038-28.537-12.119
		c-6.776-8.078-10.163-20.718-10.163-37.918c0-16.677,3.777-29.642,11.336-38.895c7.557-9.25,18.633-13.877,33.228-13.877
		c4.037,0,7.36,0.229,9.968,0.684c2.605,0.458,5.211,1.207,7.819,2.248V38.527h25.409V140.945z M948.218,156.582
		c4.951,0,8.86-1.204,11.728-3.616c2.864-2.41,4.887-5.894,6.06-10.457v-41.436c-1.827-1.432-3.846-2.507-6.06-3.225
		c-2.217-0.715-5.082-1.075-8.6-1.075c-7.169,0-12.543,2.413-16.125,7.231c-3.586,4.822-5.375,13.096-5.375,24.823
		c0,8.34,1.466,15.05,4.396,20.132C937.175,154.041,941.831,156.582,948.218,156.582z"/>
</g>
</svg>
